# WaveFront *.obj file (generated by Autodesk ATF)

mtllib fishtail.mtl

g Body1

v 0.654816 1.045026 0.188650
v 0.126150 0.286484 0.232874
v 0.306920 0.808568 0.182042
v 0.068348 0.673638 0.083201
v 0.933929 -0.016030 0.220109
v 0.126150 0.289841 0.172499
v 0.325860 0.528186 0.151948
v 0.126150 0.768473 0.163855
v 0.996827 1.093962 0.205143
v 0.060741 0.322893 0.308533
v 0.494550 0.898102 0.167372
v 0.165405 0.664672 0.131887
v 0.587460 0.987819 0.232134
v 0.111970 0.440861 0.098893
v 0.496526 0.977277 0.188650
v 0.695912 0.074457 0.172320
v 0.609609 0.021135 0.203972
v 0.518907 0.159765 0.243263
v 0.199735 0.495963 0.131085
v 0.292235 0.452286 0.261542
v 0.513732 1.003898 0.205143
v 0.370493 0.845792 0.238434
v 0.643375 1.006772 0.178207
v 0.200108 0.570255 0.131196
v 0.220765 0.554343 0.136627
v 0.465132 0.240259 0.251754
v 0.937853 1.083986 0.219327
v 0.872393 0.316619 0.181191
v 0.700935 -0.007379 0.203972
v 0.240889 0.585647 0.142881
v 0.496526 0.088906 0.221512
v 0.088473 0.574068 0.080278
v 0.891742 0.757574 0.222828
v 0.274097 0.787767 0.221854
v 0.550490 0.191938 0.249824
v 0.926197 1.079322 0.188714
v 0.774245 0.876866 0.239781
v 0.170403 0.484041 0.121393
v 0.137582 0.586590 0.302797
v 0.339616 0.206715 0.221171
v 0.609609 0.043109 0.185874
v 0.328589 0.757516 0.248731
v 0.245267 0.320364 0.237250
v 0.166643 0.326035 0.249474
v 0.609624 0.106850 0.239893
v 0.564861 0.132814 0.241746
v 0.088473 0.492367 0.330008
v 0.062818 0.530962 0.347236
v 0.224324 0.516898 0.137448
v 0.248734 0.620530 0.146961
v 0.372738 0.756214 0.255034
v 0.220765 0.512092 0.273658
v 0.270127 0.652656 0.258201
v 0.336051 0.777136 0.163745
v 0.618785 0.951080 0.168456
v 0.047782 0.835790 0.249887
v 0.813372 1.058152 0.226942
v 0.747974 0.998342 0.238883
v 0.103431 0.533217 0.320900
v 0.613043 0.159912 0.161659
v 0.274097 0.733531 0.244018
v 0.666345 0.970520 0.240707
v 0.192589 0.448084 0.132494
v 0.206348 0.770039 0.197831
v 0.206348 0.769838 0.212945
v 0.229538 0.527529 0.271653
v 0.107586 0.582347 0.318496
v 0.532748 0.904991 0.165867
v 0.250706 0.665620 0.152501
v 0.373777 0.907047 0.205143
v 0.700935 0.008681 0.221512
v 0.670070 0.977796 0.170731
v 0.617292 0.085202 0.174243
v 0.654816 1.042267 0.222716
v 0.166643 0.294135 0.194786
v 0.484054 0.526721 0.158877
v 0.388774 0.770726 0.254274
v 0.297694 0.705429 0.252575
v 0.054880 0.322024 0.097335
v -0.000053 0.431797 0.094887
v 0.656590 0.079793 0.173068
v 0.166643 0.300901 0.228018
v 0.920839 -0.010556 0.187734
v 0.084869 0.815532 0.214319
v 0.405055 0.659624 0.156548
v 0.531300 0.962490 0.232539
v 0.411588 0.229379 0.164302
v 0.773364 1.038591 0.179140
v 0.548437 0.526039 0.249800
v 0.777222 0.730790 0.239055
v 0.348392 0.340810 0.153828
v 0.566043 0.929031 0.167667
v 0.133315 0.625939 0.110798
v 0.625982 0.153372 0.247892
v 0.126150 0.779811 0.177201
v 0.482810 0.931865 0.176233
v 0.280374 0.479881 0.262952
v 0.275757 0.799045 0.206828
v 0.339616 0.857776 0.222350
v 0.359082 0.741045 0.154493
v 0.265390 0.544685 0.265030
v 0.189403 0.435993 0.276762
v 0.051783 0.422330 0.344800
v 0.114675 0.725726 0.129253
v 0.233708 0.628312 0.265828
v 0.872922 1.052481 0.230072
v 0.480379 0.835532 0.251497
v 0.126150 0.313178 0.258884
v 0.795099 1.006730 0.238581
v 0.126150 0.278561 0.213730
v 0.563638 0.908155 0.245816
v 0.151199 0.372645 0.133875
v 0.308045 0.832684 0.206822
v 0.206348 0.752166 0.176625
v 0.367238 0.315517 0.255331
v 0.703774 0.954265 0.244794
v 0.579876 0.347693 0.161240
v 0.092192 0.701910 0.106369
v 0.719679 0.103385 0.166386
v -0.000053 0.564563 0.189542
v 0.649204 0.539772 0.163654
v 0.649765 0.791414 0.246707
v 0.166643 0.304062 0.178215
v 0.547019 0.872572 0.250265
v 0.180069 0.627312 0.280664
v 0.206348 0.328430 0.242262
v 0.248498 0.773169 0.188607
v 0.084869 0.272813 0.255117
v 0.439756 0.256899 0.157837
v 0.654815 0.933804 0.246024
v 0.516106 0.897270 0.244551
v 0.098050 0.693988 0.302996
v 0.340249 0.871030 0.206878
v 0.329768 0.373321 0.152485
v 0.272060 0.500496 0.264041
v 0.835963 1.031076 0.234594
v 0.345804 0.803286 0.243137
v 0.070344 0.509142 0.341973
v 0.067961 0.553364 0.343622
v 0.177341 0.704650 0.146949
v 0.700935 1.057458 0.188650
v 0.126150 0.787462 0.216439
v 0.996827 0.533217 0.205143
v 0.898433 0.000279 0.226344
v 0.775008 1.050032 0.228080
v 0.199735 0.570471 0.279201
v 0.496526 0.991055 0.211811
v 0.442291 0.122238 0.221512
v -0.000053 0.166570 0.168678
v 0.552298 1.003342 0.222716
v 0.062818 0.535472 0.063050
v 0.746831 1.084495 0.206915
v 0.140809 0.586561 0.109018
v 0.219617 0.773240 0.205143
v 0.171244 0.484262 0.288591
v 0.364218 0.895977 0.211797
v 0.700935 1.074182 0.198894
v 0.181578 0.621831 0.129976
v 0.440724 0.383820 0.252550
v 0.850213 1.039453 0.177304
v 0.719746 0.687821 0.167032
v 0.241346 0.589725 0.267191
v 0.596796 0.338981 0.248609
v 0.245267 0.745834 0.172934
v 0.083582 0.495619 0.077150
v 0.756653 0.853740 0.169169
v 0.442388 0.941815 0.222716
v 0.947240 1.095835 0.207434
v 0.206348 0.296900 0.196471
v 0.552298 1.020970 0.198894
v 0.676053 0.941459 0.164860
v 0.747967 1.067099 0.188650
v 0.305374 0.643050 0.260076
v 0.705122 0.247627 0.243572
v 0.700924 0.049064 0.233136
v 0.127819 0.394854 0.293148
v 0.711038 0.496430 0.243898
v 0.620602 0.910395 0.248386
v 0.270406 0.504914 0.145998
v 0.140809 0.479874 0.301268
v 0.856803 0.617718 0.230134
v 0.814452 0.048188 0.236807
v 0.264377 0.303120 0.177891
v 0.093238 0.306755 0.276186
v 0.271704 0.284777 0.224515
v 0.609609 1.029806 0.188650
v 0.186140 0.533217 0.126896
v 0.762188 0.411032 0.170091
v 0.531722 0.706808 0.160086
v 0.083582 0.570815 0.333136
v 0.609609 1.045648 0.198894
v 0.288339 0.461065 0.148266
v 0.245267 0.770471 0.222930
v 0.389692 0.838405 0.166692
v 0.245267 0.294543 0.221710
v 0.229538 0.538906 0.138633
v 0.700928 1.016908 0.177044
v 0.170403 0.582394 0.288893
v 0.241768 0.441115 0.264278
v 0.306920 0.257637 0.228137
v 0.654816 0.005440 0.203972
v 0.609609 1.027128 0.222716
v 0.206348 0.314086 0.233529
v 0.438491 0.849368 0.246503
v 0.806115 1.013261 0.172651
v 0.155469 0.356768 0.269095
v 0.552298 0.066712 0.185874
v 0.126150 0.297765 0.246239
v 0.166643 0.754727 0.171084
v 0.269282 0.272991 0.204021
v 0.747967 -0.017322 0.203972
v 0.084869 0.264049 0.165448
v 0.389535 0.164835 0.185826
v 0.442291 0.109654 0.203972
v 0.274414 0.571991 0.146562
v 0.409553 0.917925 0.223008
v 0.654816 0.028087 0.185874
v 0.795913 -0.007822 0.221512
v 0.886922 0.305485 0.226523
v 0.496526 0.075302 0.203972
v 0.245267 0.694912 0.252899
v 0.310873 0.411625 0.150783
v 0.339616 0.196718 0.203996
v 0.390795 0.817522 0.247486
v 0.619391 0.946197 0.242542
v 0.268751 0.361000 0.249998
v 0.777558 0.553770 0.172059
v 0.205944 0.656540 0.267497
v 0.700944 0.032052 0.181376
v 0.067961 0.513070 0.066664
v 0.358108 0.808072 0.165584
v 0.241148 0.484854 0.142536
v 0.627212 0.818411 0.162648
v 0.727466 1.030557 0.231430
v 0.112493 0.482780 0.315731
v 0.700935 1.054631 0.222716
v 0.219406 0.705812 0.156632
v 0.654816 1.060906 0.211811
v 0.389535 0.918051 0.211827
v -0.000053 0.507397 0.193616
v 0.079398 0.749513 0.292067
v 0.481656 0.722379 0.251487
v 0.496526 0.974883 0.222716
v 0.878510 0.899231 0.181722
v 0.945229 -0.028835 0.208475
v 0.189609 0.771120 0.205143
v 0.313511 0.297183 0.167294
v 0.206348 0.761480 0.225707
v 0.206348 0.737777 0.167906
v 0.376877 0.893810 0.222721
v 0.877808 0.607819 0.183576
v 0.264796 0.525025 0.265122
v 0.441930 0.907190 0.175667
v 0.306920 0.248363 0.186879
v 0.544116 0.871153 0.160319
v 0.070344 0.557292 0.068312
v 0.245275 0.547049 0.142181
v 0.206348 0.762718 0.185843
v 0.297043 0.338342 0.248615
v 0.245267 0.287592 0.197642
v 0.107586 0.484088 0.091790
v 0.224324 0.549536 0.272838
v 0.486331 0.940667 0.232421
v 0.795862 0.016334 0.181364
v 0.552298 0.060277 0.221512
v 0.409048 0.883396 0.174908
v 0.889546 1.061574 0.182592
v 0.442421 0.957103 0.205874
v 0.496526 0.094952 0.185874
v 0.442383 0.180611 0.239915
v 0.064999 0.833425 0.205143
v 0.335396 0.838874 0.181015
v 0.534406 0.169855 0.164457
v 0.389535 0.148319 0.203969
v 0.714569 0.962825 0.166796
v 0.825256 1.097356 0.205143
v -0.000053 0.325528 0.049729
v 0.166183 0.409119 0.279722
v 0.376242 0.759968 0.155419
v 0.565443 0.972359 0.176576
v 0.351917 0.198561 0.186094
v 0.602913 0.993402 0.178162
v 0.043714 0.853750 0.216213
v 0.249832 0.433668 0.148244
v 0.144130 0.533217 0.299741
v 0.376877 0.170465 0.221516
v 0.306920 0.244433 0.220658
v 0.965856 -0.025766 0.213241
v 0.093734 0.362750 0.302209
v 0.747263 0.030235 0.179399
v 0.364218 0.170397 0.203974
v 0.888630 0.466629 0.183299
v 0.278197 0.484903 0.147023
v 0.764862 0.077563 0.240976
v 0.844772 -0.028577 0.203972
v 0.166643 0.772606 0.214461
v 0.103431 0.533217 0.089386
v 0.245267 0.733989 0.241705
v 0.166643 0.765402 0.182094
v 0.844772 1.094917 0.211811
v 0.469922 0.901153 0.239806
v 0.246645 0.780144 0.206424
v 0.166643 0.764150 0.229702
v 0.609609 0.036348 0.221512
v 0.058468 0.226646 0.205480
v 0.408970 0.367445 0.156711
v 0.578626 0.092543 0.175526
v 0.126150 0.748064 0.262298
v 0.206348 0.303587 0.224297
v 0.206348 0.712845 0.252980
v 0.216175 0.408417 0.144960
v 0.152538 0.679447 0.280230
v 0.206348 0.306712 0.182596
v 0.079400 0.290582 0.135178
v 0.076138 0.738227 0.109992
v 0.663311 0.075362 0.237016
v 0.496542 0.201922 0.248457
v 0.442291 0.127830 0.185874
v 0.552298 0.045796 0.203972
v 0.245267 0.297790 0.185640
v 0.245267 0.286878 0.210273
v 0.306959 0.784468 0.237189
v 0.832157 0.037615 0.175279
v 0.117201 0.437967 0.307973
v 0.539617 0.102833 0.176705
v 0.894793 0.890099 0.221354
v 0.200108 0.496179 0.279090
v 0.413646 0.205628 0.241628
v 0.996827 0.393031 0.205143
v 0.665403 0.132900 0.246502
v 0.383388 0.300349 0.155770
v 0.732903 0.069871 0.171851
v 0.126150 0.280495 0.188500
v 0.906524 1.070274 0.225023
v 0.894544 -0.029890 0.203972
v 0.442377 0.869131 0.166807
v 0.664225 1.067334 0.205143
v 0.519500 0.944654 0.174694
v 0.595305 0.168925 0.248731
v 0.587661 1.039793 0.205143
v 0.609609 1.045213 0.211811
v 0.339616 0.859536 0.188993
v 0.367169 0.234770 0.168983
v 0.450967 0.167446 0.172442
v 0.451162 0.211123 0.163961
v 0.474390 0.136694 0.233298
v 0.700935 1.073723 0.211811
v 0.844772 1.078014 0.188650
v 0.364218 0.197271 0.229352
v 0.364218 0.868883 0.180820
v 0.084869 0.260337 0.238864
v 0.055471 0.269147 0.281481
v 0.967567 1.092532 0.212834
v 0.347673 0.544518 0.257396
v 0.293931 0.340866 0.161395
v 0.166643 0.293441 0.212226
v 0.216059 0.409656 0.265262
v 0.409545 0.920024 0.188347
v 0.894544 1.096230 0.211811
v 0.879093 0.010525 0.181069
v 0.306920 0.821838 0.189509
v 0.232916 0.486447 0.269907
v 0.306920 0.235591 0.204033
v 0.442392 0.944032 0.188650
v 0.996827 0.673404 0.205143
v 0.084272 0.408099 0.319911
v 0.306920 0.820282 0.221800
v 0.818457 0.149195 0.174095
v 0.724381 0.252954 0.166968
v 0.784340 1.091939 0.205143
v 0.084869 0.793405 0.154935
v 0.654816 0.021119 0.221512
v 0.171244 0.582173 0.121695
v 0.061523 0.373213 0.083760
v -0.000053 0.533217 0.018228
v 0.084869 0.814644 0.192270
v 0.166643 0.714946 0.262274
v 0.206348 0.296213 0.211074
v 0.552298 1.020557 0.211811
v 0.580285 0.943640 0.240854
v 0.273082 0.568672 0.263920
v 0.343559 0.717819 0.153503
v 0.768773 0.030677 0.231622
v 0.496526 0.991444 0.198894
v 0.909724 1.099836 0.205143
v 0.137582 0.479845 0.107489
v 0.095508 0.349586 0.113878
v 0.059364 0.376684 0.328714
v 0.264185 0.531169 0.145070
v 0.643463 1.001730 0.233302
v 0.162893 0.774444 0.200777
v -0.000053 0.797555 0.072974
v 0.605195 0.118975 0.168501
v 0.074080 0.450303 0.333933
v 0.894544 1.096708 0.198894
v 0.795913 1.073952 0.188650
v 0.104647 0.661223 0.102344
v 0.424978 0.888130 0.236610
v 0.378237 0.229088 0.241888
v 0.385335 0.298385 0.254431
v 0.166643 0.311523 0.239043
v 0.112493 0.583655 0.094555
v 0.242642 0.353918 0.161655
v 0.747967 -0.000966 0.221512
v 0.281389 0.640599 0.151119
v 0.376877 0.895765 0.188646
v 0.315018 0.746388 0.162149
v 0.844772 1.095394 0.198894
v 0.389535 0.918378 0.198879
v 0.126150 0.753012 0.151231
v 0.127185 0.787897 0.199850
v 0.350521 0.268673 0.245249
v 0.207107 0.664803 0.144720
v 0.795913 1.090729 0.211811
v 0.574827 0.161149 0.163521
v 0.087561 0.616835 0.325867
v 0.595156 0.068784 0.230353
v 0.274154 0.789194 0.189460
v 0.795913 1.091202 0.198894
v 0.069510 0.654239 0.330951
v 0.420014 0.187327 0.171967
v 0.245365 0.527781 0.267463
v 0.135787 0.690663 0.126271
v 0.144130 0.533217 0.110544
v 0.078853 0.803662 0.249954
v 0.737142 1.027787 0.177956
v 0.126150 0.778481 0.234915
v 0.700952 0.989925 0.238886
v 0.306934 0.700123 0.156265
v 0.492527 0.129443 0.175817
v 0.996827 0.252845 0.205143
v 0.335395 0.227304 0.229161
v 0.084869 0.252693 0.222016
v 0.156180 0.432580 0.121760
v 0.486731 0.189827 0.164566
v 0.996827 0.112659 0.205143
v 0.959584 -0.024364 0.195589
v 0.370924 0.311885 0.155164
v 0.712293 0.107521 0.244281
v 0.364218 0.896284 0.198907
v 0.399423 0.801466 0.159494
v 0.681838 0.640614 0.244933
v 0.996827 -0.027528 0.205143
v 0.268124 0.554844 0.145670
v 0.589112 0.894373 0.161399
v 0.878457 0.477583 0.226831
v 0.858792 0.022056 0.231919
v 0.245267 0.760790 0.180476
v 0.287708 0.603866 0.262086
v 0.778793 0.069375 0.170361
v 0.552298 1.005891 0.188650
v 0.284997 0.597528 0.147891
v 0.521562 0.207450 0.159544
v 0.109784 0.652498 0.307314
v 0.321360 0.389804 0.258534
v 0.996827 0.953776 0.205143
v 0.269253 0.284177 0.186687
v 0.166643 0.740169 0.160672
v 0.313806 0.661116 0.151043
v 0.755445 0.983377 0.168628
v 0.206433 0.377791 0.260257
v 0.777355 0.380481 0.238956
v 0.351044 0.729695 0.256286
v 0.844772 -0.011887 0.221512
v 0.409494 0.146224 0.221816
v 0.321541 0.676925 0.258481
v 0.351133 0.336605 0.256281
v 0.664124 0.133453 0.163558
v 0.638714 0.919688 0.162871
v 0.358049 0.326763 0.154432
v 0.082336 0.628753 0.083414
v 0.418143 0.794084 0.253129
v 0.408107 0.933348 0.205143
v 0.996827 0.813590 0.205143
v 0.407809 0.251886 0.249539
v 0.869577 0.744266 0.180765
v 0.795913 -0.024388 0.203972
v 0.122135 0.713207 0.282168
v 0.275894 0.723291 0.163523
v 0.457129 0.821077 0.158326
v 0.060074 0.594753 0.064629
v 0.166643 0.341377 0.152468
v 0.096839 0.807232 0.205143
v 0.654816 1.061354 0.198894
v 0.264416 0.398018 0.153946
v 0.961175 1.091181 0.195953
v 0.151643 0.446083 0.292909
v 0.401309 0.285366 0.156537
v 0.539171 0.103615 0.233262
v 0.354858 0.272167 0.163590
v 0.084869 0.805944 0.171165
v 0.142895 0.634006 0.294583
v 0.867490 1.098596 0.205143
v 0.325598 0.300772 0.246732
v 0.206348 0.372346 0.151391
v 0.186140 0.533217 0.283390
v -0.000053 0.606148 0.021819
v 0.038256 0.727879 0.077533
v 0.029897 0.384760 0.352565
v -0.000053 0.187843 0.133614
v -0.000053 0.780853 0.264146
v 0.042802 0.829521 0.144327
v 0.058106 0.707489 0.324322
v -0.000053 0.740906 0.360557
v -0.000053 0.704036 0.083392
v 0.042802 0.236666 0.265676
v 0.024014 0.360485 0.059107
v -0.000053 0.415268 0.160721
v -0.000053 0.844046 0.308987
v 0.038505 0.479833 0.361554
v 0.030481 0.196498 0.211417
v -0.000053 0.718935 0.237875
v -0.000053 0.365922 0.125277
v -0.000053 0.759438 0.196484
v -0.000053 0.362398 0.326894
v 0.030371 0.674591 0.354180
v 0.042802 0.843801 0.163986
v -0.000053 0.460287 0.388466
v -0.000053 0.627951 0.186044
v -0.000053 0.549127 0.065071
v 0.106473 0.397650 0.104787
v 0.126150 0.329472 0.141287
v -0.000053 0.676276 0.032456
v -0.000053 0.700512 0.285009
v -0.000053 0.787934 0.143234
v -0.000053 0.522073 0.249251
v -0.000053 0.566445 0.296093
v -0.000053 0.595838 0.125731
v -0.000053 0.525725 0.130608
v -0.000053 0.665003 0.127703
v -0.000053 0.312115 0.279758
v -0.000053 0.594444 0.244384
v -0.000053 0.196480 0.197064
v -0.000053 0.235771 0.248385
v -0.000053 0.692216 0.188101
v -0.000053 0.166570 0.241608
v -0.000053 0.390159 0.032456
v 0.042802 0.626160 0.056354
v 0.044118 0.614537 0.354296
v 0.026115 0.295737 0.084540
v -0.000053 0.732329 0.124903
v -0.000053 0.268880 0.337312
v -0.000053 0.494473 0.066640
v -0.000053 0.797555 0.337312
v -0.000053 0.533217 0.392058
v 0.022755 0.764464 0.331461
v 0.039103 0.796295 0.111754
v 0.022954 0.845279 0.277677
v -0.000053 0.660207 0.241724
v -0.000053 0.378041 0.078866
v -0.000053 0.254151 0.189066
v -0.000053 0.878591 0.133614
v -0.000053 0.390159 0.377830
v -0.000053 0.899864 0.241608
v -0.000053 0.464150 0.288970
v -0.000053 0.364515 0.251783
v -0.000053 0.469300 0.156928
v -0.000053 0.305396 0.214144
v -0.000053 0.603606 0.341638
v 0.042802 0.222458 0.245989
v 0.032702 0.866697 0.205143
v -0.000053 0.460287 0.021819
v -0.000053 0.676276 0.377830
v -0.000053 0.483077 0.342860
v -0.000053 0.228987 0.146775
v 0.496531 0.857956 0.160929
v 0.206381 0.337964 0.163779
v -0.000053 0.420840 0.337982
v 0.059068 0.436376 0.068430
v 0.030016 0.345936 0.342170
v 0.039494 0.803592 0.293004
v 0.021382 0.509123 0.034851
v -0.000053 0.363456 0.184840
v -0.000053 0.535496 0.344544
v -0.000053 0.159387 0.205143
v -0.000053 0.899864 0.168678
v -0.000053 0.325528 0.360557
v -0.000053 0.268880 0.072974
v 0.023381 0.251515 0.303210
v 0.023318 0.867371 0.247294
v 0.030036 0.284538 0.315988
v 0.026106 0.577753 0.039407
v -0.000053 0.409132 0.285824
v 0.037301 0.662688 0.059612
v 0.042802 0.226686 0.157060
v -0.000053 0.632218 0.292295
v 0.047785 0.265712 0.124377
v -0.000053 0.222389 0.101299
v -0.000053 0.222389 0.308987
v -0.000053 0.740906 0.049729
v -0.000053 0.187843 0.276672
v 0.039654 0.761938 0.092729
v 0.035249 0.469895 0.047580
v -0.000053 0.480373 0.112390
v -0.000053 0.304285 0.136153
v -0.000053 0.440124 0.222899
v -0.000053 0.844046 0.101299
v -0.000053 0.606148 0.388466
v 0.021376 0.438714 0.369306
v 0.042802 0.854830 0.194730
v 0.026379 0.519107 0.372439
v -0.000053 0.907047 0.205143
v -0.000053 0.513329 0.303029
v -0.000053 0.878591 0.276672
v 0.025596 0.699003 0.058466
v 0.025716 0.196292 0.174560
v -0.000053 0.848803 0.209347
v -0.000053 0.638845 0.072412
v 0.042804 0.573213 0.359226
usemtl Steel_-_Satin
f 77 242 472
f 365 33 181
f 90 33 37
f 188 227 292
f 326 37 33
f 181 90 442
f 365 251 476
f 400 26 159
f 436 431 219
f 181 442 177
f 436 219 439
f 368 431 360
f 334 456 27
f 365 181 143
f 488 306 129
f 306 117 129
f 117 188 369
f 166 476 161
f 474 244 456
f 163 339 174
f 9 353 456
f 124 242 122
f 188 121 227
f 177 446 181
f 365 474 33
f 474 456 326
f 438 306 331
f 436 83 431
f 462 446 177
f 83 436 437
f 189 161 121
f 329 446 219
f 124 122 178
f 292 251 143
f 27 456 353
f 306 76 117
f 116 178 37
f 7 306 134
f 189 76 85
f 456 244 160
f 166 244 476
f 115 159 467
f 51 242 77
f 368 468 369
f 136 456 106
f 329 143 446
f 28 431 368
f 7 85 76
f 106 456 334
f 431 28 329
f 329 219 431
f 437 436 443
f 188 292 28
f 292 329 28
f 442 122 242
f 450 368 323
f 474 365 476
f 182 447 436
f 354 159 89
f 121 117 76
f 453 117 60
f 251 292 227
f 188 28 369
f 242 89 442
f 163 89 159
f 122 442 90
f 187 196 49
f 187 49 19
f 19 38 187
f 187 38 424
f 187 424 373
f 373 424 153
f 153 424 402
f 402 424 297
f 402 297 32
f 32 297 256
f 256 297 151
f 151 297 165
f 151 165 230
f 38 386 424
f 424 386 297
f 386 261 297
f 297 261 165
f 373 24 187
f 187 24 25
f 187 25 196
f 496 66 262
f 262 146 496
f 496 146 198
f 496 198 285
f 285 198 39
f 285 39 67
f 285 67 59
f 59 67 190
f 59 190 139
f 139 48 59
f 59 48 47
f 59 47 235
f 48 138 47
f 59 235 285
f 285 235 180
f 285 180 155
f 285 155 496
f 496 155 327
f 496 327 66
f 66 327 52
f 37 122 90
f 329 292 143
f 365 143 251
f 161 251 227
f 443 436 288
f 486 9 456
f 476 251 161
f 182 436 294
f 76 189 121
f 166 161 233
f 189 85 279
f 439 174 330
f 89 242 354
f 472 242 107
f 233 189 255
f 163 462 177
f 474 476 244
f 94 174 339
f 460 205 166
f 5 288 436
f 144 5 436
f 447 144 436
f 90 181 33
f 323 368 360
f 330 174 94
f 163 174 462
f 35 339 163
f 161 227 121
f 37 136 109
f 37 109 116
f 122 37 178
f 136 37 326
f 117 369 60
f 124 107 242
f 354 242 463
f 51 463 242
f 354 463 466
f 466 173 354
f 354 173 449
f 20 354 97
f 97 354 135
f 449 381 354
f 135 354 252
f 381 101 354
f 101 252 354
f 20 455 354
f 354 455 467
f 354 467 159
f 115 400 159
f 163 159 26
f 36 486 456
f 267 36 456
f 160 267 456
f 205 160 244
f 244 166 205
f 460 166 469
f 469 166 233
f 469 233 445
f 445 233 255
f 263 301 131
f 270 346 317
f 52 362 66
f 41 17 319
f 183 247 254
f 319 17 304
f 319 304 265
f 265 304 417
f 46 489 45
f 189 233 161
f 480 255 189
f 195 309 378
f 378 309 356
f 279 480 189
f 100 279 85
f 100 85 382
f 7 382 85
f 295 464 477
f 477 464 218
f 477 218 211
f 211 218 404
f 211 404 29
f 29 404 71
f 29 71 201
f 201 71 372
f 201 372 17
f 17 372 304
f 382 7 459
f 295 335 464
f 459 7 452
f 452 7 215
f 432 399 412
f 215 7 444
f 389 444 7
f 399 475 412
f 468 60 369
f 494 200 412
f 200 494 185
f 450 119 368
f 298 248 310
f 234 58 145
f 318 430 269
f 195 43 203
f 195 203 309
f 309 203 82
f 309 82 356
f 110 356 2
f 184 10 352
f 119 468 368
f 118 397 4
f 102 327 155
f 180 487 155
f 368 369 28
f 453 129 117
f 174 439 219
f 7 76 306
f 162 66 422
f 66 162 262
f 162 105 146
f 221 310 228
f 310 221 298
f 470 91 306
f 248 193 65
f 302 65 193
f 65 302 154
f 65 154 246
f 91 134 306
f 488 331 306
f 243 86 150
f 438 470 306
f 231 272 194
f 361 272 3
f 134 222 7
f 7 222 192
f 7 192 293
f 293 179 7
f 202 74 341
f 347 238 236
f 414 276 370
f 276 414 300
f 385 493 359
f 300 359 493
f 385 359 168
f 7 179 389
f 288 245 443
f 380 86 111
f 18 46 35
f 74 236 238
f 347 236 152
f 317 35 26
f 428 236 74
f 245 288 5
f 245 5 335
f 87 281 343
f 250 398 216
f 144 464 335
f 300 414 57
f 349 328 399
f 99 22 250
f 5 144 335
f 464 144 447
f 447 182 464
f 218 464 182
f 45 94 339
f 115 494 412
f 439 175 294
f 287 432 200
f 347 337 238
f 238 341 74
f 150 202 379
f 263 131 86
f 475 399 328
f 99 367 137
f 105 162 449
f 341 238 191
f 341 340 379
f 379 21 147
f 147 21 384
f 167 268 216
f 239 250 216
f 124 111 131
f 22 204 398
f 239 268 473
f 239 70 156
f 156 133 250
f 367 99 113
f 133 156 440
f 133 113 99
f 34 367 98
f 103 366 394
f 199 97 362
f 397 423 93
f 113 98 367
f 193 34 302
f 98 302 34
f 65 246 296
f 296 246 391
f 296 391 142
f 142 391 411
f 142 411 483
f 142 483 84
f 84 483 271
f 84 271 283
f 135 422 362
f 172 88 426
f 427 142 425
f 142 427 296
f 296 427 303
f 65 296 248
f 303 248 296
f 162 422 101
f 388 289 366
f 283 56 84
f 140 12 423
f 432 412 200
f 1 197 23
f 427 308 303
f 468 393 60
f 84 425 142
f 303 308 377
f 248 303 310
f 377 310 303
f 435 273 430
f 301 398 204
f 171 72 275
f 324 366 176
f 198 146 125
f 322 137 367
f 315 104 118
f 430 318 344
f 274 465 286
f 252 101 422
f 162 101 381
f 128 208 184
f 44 108 401
f 208 401 108
f 44 401 126
f 126 401 203
f 126 203 43
f 469 55 171
f 208 128 2
f 351 2 128
f 401 208 82
f 2 82 208
f 401 82 203
f 31 489 346
f 207 307 41
f 253 364 96
f 145 152 234
f 224 51 77
f 408 395 348
f 224 77 472
f 385 395 493
f 395 385 168
f 107 301 204
f 50 69 405
f 315 371 410
f 241 308 425
f 265 417 489
f 358 253 266
f 127 418 448
f 344 421 345
f 416 454 420
f 3 418 361
f 342 350 272
f 350 342 406
f 168 359 27
f 96 364 15
f 15 280 338
f 280 15 451
f 324 487 180
f 451 186 282
f 434 386 38
f 186 1 23
f 168 27 353
f 197 1 141
f 107 124 131
f 410 371 8
f 458 410 209
f 8 209 410
f 458 209 249
f 249 209 114
f 249 114 164
f 164 114 448
f 205 460 88
f 98 418 302
f 418 98 361
f 361 98 113
f 361 113 342
f 342 113 133
f 406 342 440
f 133 440 342
f 45 330 94
f 406 440 409
f 409 364 358
f 364 409 268
f 364 268 15
f 15 268 384
f 15 384 451
f 451 384 170
f 451 170 186
f 186 170 191
f 186 191 1
f 1 191 484
f 1 484 141
f 141 484 157
f 141 157 172
f 172 157 152
f 172 152 396
f 396 152 419
f 396 419 348
f 348 419 408
f 8 371 95
f 491 95 371
f 209 8 299
f 95 299 8
f 209 299 114
f 114 299 258
f 114 258 448
f 448 258 127
f 127 302 418
f 376 271 483
f 376 483 411
f 391 246 64
f 64 246 154
f 64 154 302
f 70 440 156
f 440 70 409
f 409 70 473
f 384 21 170
f 170 21 379
f 170 340 191
f 191 340 341
f 337 484 238
f 484 337 157
f 157 337 347
f 419 152 370
f 419 276 408
f 408 276 493
f 407 479 418
f 69 479 429
f 130 178 116
f 116 428 62
f 428 116 58
f 92 338 280
f 207 325 307
f 58 116 109
f 109 57 145
f 109 136 57
f 136 106 57
f 300 106 359
f 204 224 472
f 231 3 272
f 168 353 9
f 312 228 377
f 469 171 460
f 51 137 42
f 24 50 30
f 97 199 20
f 417 45 489
f 453 60 415
f 426 460 197
f 38 63 434
f 241 478 308
f 463 78 466
f 199 226 20
f 255 68 445
f 202 150 13
f 450 332 119
f 396 205 88
f 267 160 348
f 267 348 395
f 168 9 486
f 452 405 459
f 173 466 53
f 357 102 278
f 396 348 160
f 342 272 361
f 12 140 413
f 173 53 449
f 16 81 119
f 3 54 407
f 482 567 123
f 380 13 86
f 486 36 395
f 36 267 395
f 316 417 304
f 426 88 460
f 129 87 488
f 92 445 68
f 566 255 480
f 196 257 232
f 196 232 49
f 24 30 25
f 480 279 441
f 386 14 261
f 261 14 165
f 54 231 279
f 199 357 226
f 402 32 471
f 93 402 471
f 216 398 167
f 434 14 386
f 196 25 257
f 199 362 102
f 102 155 487
f 324 180 235
f 414 145 57
f 394 235 47
f 343 488 87
f 100 382 407
f 218 383 404
f 52 327 362
f 416 190 67
f 416 67 39
f 289 176 366
f 215 30 452
f 382 459 429
f 264 477 211
f 229 290 29
f 50 452 30
f 175 404 383
f 418 164 448
f 444 257 30
f 316 45 417
f 389 179 232
f 71 404 175
f 257 444 389
f 461 206 44
f 372 71 175
f 372 175 316
f 211 29 290
f 217 229 201
f 241 132 478
f 393 307 415
f 29 201 229
f 125 105 228
f 4 397 471
f 304 372 316
f 201 17 217
f 41 217 17
f 325 415 307
f 18 317 346
f 178 111 124
f 145 414 152
f 428 390 62
f 413 237 69
f 293 192 284
f 18 346 489
f 270 148 346
f 286 465 349
f 427 425 308
f 164 237 249
f 485 284 222
f 265 489 31
f 358 266 406
f 194 266 336
f 328 349 465
f 286 349 40
f 259 185 494
f 40 349 432
f 61 42 322
f 287 200 185
f 319 265 220
f 220 265 31
f 220 31 214
f 214 31 148
f 214 148 274
f 274 148 465
f 274 286 291
f 152 236 234
f 223 291 40
f 286 40 291
f 223 40 363
f 363 40 287
f 363 287 210
f 210 287 185
f 195 321 185
f 321 195 378
f 260 210 321
f 169 260 378
f 321 378 260
f 75 169 356
f 378 356 169
f 333 75 110
f 356 110 75
f 333 110 433
f 207 319 220
f 228 53 221
f 269 220 214
f 318 214 274
f 92 68 338
f 281 213 291
f 274 291 213
f 281 291 223
f 254 281 363
f 223 363 281
f 457 254 210
f 363 210 254
f 457 210 260
f 212 333 433
f 212 433 305
f 485 222 134
f 211 290 264
f 192 222 284
f 104 423 118
f 247 91 470
f 311 284 485
f 313 567 320
f 63 232 284
f 49 232 19
f 183 254 457
f 247 470 490
f 183 457 320
f 320 457 260
f 313 320 169
f 260 169 320
f 123 313 75
f 169 75 313
f 123 75 6
f 6 75 333
f 6 333 212
f 490 470 438
f 72 23 197
f 490 438 331
f 318 213 344
f 228 105 53
f 254 247 490
f 495 112 311
f 183 355 247
f 428 234 236
f 183 320 403
f 278 461 357
f 254 343 281
f 343 490 488
f 313 123 567
f 482 123 522
f 522 123 6
f 522 6 314
f 314 6 212
f 478 132 312
f 105 449 53
f 282 280 451
f 185 43 195
f 61 298 221
f 331 488 490
f 339 35 46
f 43 185 259
f 87 345 421
f 357 199 102
f 115 412 400
f 229 217 16
f 325 430 273
f 93 471 397
f 301 167 398
f 103 388 366
f 125 228 312
f 249 140 458
f 434 112 521
f 450 323 264
f 40 432 287
f 34 193 61
f 43 226 126
f 62 390 225
f 485 355 403
f 567 403 320
f 390 13 225
f 482 495 567
f 311 63 284
f 264 323 477
f 295 360 335
f 387 522 314
f 387 314 79
f 93 158 153
f 92 280 55
f 430 344 435
f 289 206 176
f 388 10 289
f 210 185 321
f 202 390 74
f 335 360 83
f 335 83 437
f 387 112 522
f 245 437 443
f 269 430 325
f 61 221 78
f 256 481 32
f 324 176 487
f 387 521 112
f 44 206 108
f 226 461 126
f 126 461 44
f 100 407 54
f 311 485 495
f 282 55 280
f 463 42 78
f 63 19 232
f 66 362 422
f 61 78 42
f 164 479 237
f 407 429 479
f 116 62 130
f 294 383 182
f 335 437 245
f 50 24 158
f 16 332 229
f 295 477 323
f 373 153 158
f 12 93 423
f 402 93 153
f 492 39 198
f 218 182 383
f 164 418 479
f 407 418 3
f 3 231 54
f 566 11 255
f 198 125 492
f 468 119 81
f 175 439 316
f 172 426 141
f 69 237 479
f 140 249 237
f 394 324 235
f 104 458 423
f 315 410 104
f 162 146 262
f 150 86 13
f 302 127 64
f 64 127 258
f 64 258 391
f 391 258 299
f 411 391 95
f 299 95 391
f 376 411 491
f 95 491 411
f 270 317 26
f 298 61 193
f 34 61 322
f 34 322 367
f 344 213 421
f 105 125 146
f 99 250 133
f 156 250 239
f 167 301 263
f 425 84 56
f 403 495 485
f 224 22 137
f 373 158 24
f 270 328 465
f 413 158 12
f 204 22 224
f 278 176 206
f 263 243 167
f 243 147 268
f 254 490 343
f 243 150 147
f 379 147 150
f 341 379 202
f 130 62 225
f 25 30 257
f 400 412 475
f 454 312 132
f 259 455 226
f 403 567 495
f 420 454 132
f 107 204 472
f 428 58 234
f 178 225 380
f 45 316 330
f 239 216 268
f 53 78 221
f 289 184 108
f 310 377 228
f 14 434 521
f 492 416 39
f 253 96 11
f 345 435 344
f 298 193 248
f 22 398 250
f 434 63 311
f 358 364 253
f 409 358 406
f 11 338 68
f 73 307 393
f 434 311 112
f 495 482 112
f 38 19 63
f 312 492 125
f 492 312 454
f 416 492 454
f 186 23 282
f 78 53 466
f 183 403 355
f 325 273 415
f 131 111 86
f 158 413 50
f 140 237 413
f 128 184 352
f 387 79 374
f 387 374 521
f 351 305 433
f 380 225 13
f 45 339 46
f 350 194 272
f 194 350 266
f 406 266 350
f 336 266 253
f 11 336 253
f 396 88 172
f 11 96 338
f 26 328 270
f 194 441 231
f 259 494 467
f 115 467 494
f 566 336 11
f 140 423 458
f 99 137 22
f 46 18 489
f 171 55 72
f 467 455 259
f 355 134 91
f 332 450 290
f 275 72 197
f 2 351 110
f 433 110 351
f 224 137 51
f 82 2 356
f 453 415 273
f 72 55 23
f 461 278 206
f 300 57 106
f 102 487 278
f 55 282 23
f 207 269 325
f 308 478 377
f 42 137 322
f 202 13 390
f 327 102 362
f 232 179 293
f 257 389 232
f 239 473 70
f 409 473 268
f 383 294 175
f 87 421 281
f 312 377 478
f 69 459 405
f 435 453 273
f 300 493 276
f 408 493 395
f 147 384 268
f 73 81 41
f 429 407 382
f 414 370 152
f 419 370 276
f 170 379 340
f 100 54 279
f 441 279 231
f 432 349 399
f 157 347 152
f 191 238 484
f 463 51 42
f 118 423 397
f 481 471 32
f 158 93 12
f 290 229 332
f 50 413 69
f 35 317 18
f 330 316 439
f 135 362 97
f 428 74 390
f 73 393 81
f 217 41 81
f 81 16 217
f 108 184 208
f 184 289 10
f 528 529 120
f 542 531 589
f 607 509 604
f 555 526 596
f 120 519 528
f 543 520 375
f 558 573 595
f 80 550 513
f 543 594 529
f 557 594 80
f 557 529 594
f 120 529 240
f 596 556 583
f 544 501 504
f 550 80 537
f 557 80 508
f 525 552 597
f 583 556 515
f 497 608 523
f 533 534 551
f 543 529 520
f 500 565 588
f 543 562 80
f 528 519 530
f 530 608 528
f 557 240 529
f 595 565 551
f 588 565 578
f 526 527 532
f 607 525 514
f 534 589 531
f 551 534 558
f 120 532 519
f 531 558 534
f 541 525 392
f 277 550 537
f 519 549 535
f 595 578 565
f 603 574 527
f 509 501 544
f 583 568 555
f 555 564 603
f 541 514 525
f 586 532 527
f 541 590 505
f 514 541 535
f 531 577 515
f 558 531 556
f 513 595 573
f 578 595 277
f 501 514 512
f 524 504 501
f 563 559 598
f 513 277 595
f 553 515 577
f 535 512 514
f 523 505 590
f 530 535 541
f 277 513 550
f 513 573 508
f 504 524 563
f 535 549 512
f 523 608 505
f 535 530 519
f 576 607 602
f 574 598 559
f 533 536 534
f 497 520 608
f 607 604 554
f 149 533 500
f 591 534 536
f 500 533 565
f 596 573 556
f 607 501 509
f 564 545 574
f 557 508 596
f 533 551 565
f 240 596 526
f 597 392 525
f 524 549 586
f 596 508 573
f 555 596 583
f 607 514 501
f 551 558 595
f 526 532 120
f 598 574 545
f 545 564 518
f 518 568 553
f 519 532 549
f 524 512 549
f 501 512 524
f 531 515 556
f 541 505 530
f 527 559 586
f 537 80 562
f 586 549 532
f 586 563 524
f 543 80 594
f 574 559 527
f 603 527 526
f 559 563 586
f 375 562 543
f 542 577 531
f 591 589 534
f 536 533 575
f 149 575 533
f 513 508 80
f 583 515 568
f 555 568 564
f 596 240 557
f 529 528 520
f 555 603 526
f 497 375 520
f 528 608 520
f 518 564 568
f 530 505 608
f 564 574 603
f 392 590 541
f 553 568 515
f 525 607 552
f 120 240 526
f 576 552 607
f 558 556 573
f 554 602 607
f 510 599 103
f 581 10 570
f 103 499 388
f 374 507 569
f 609 601 48
f 510 394 47
f 570 388 499
f 352 579 506
f 538 584 481
f 498 118 4
f 498 592 315
f 305 560 511
f 351 560 305
f 165 14 569
f 581 352 10
f 376 517 600
f 582 481 256
f 241 503 132
f 539 420 516
f 548 571 56
f 584 605 4
f 376 491 517
f 584 4 471
f 425 56 571
f 548 56 580
f 584 471 481
f 79 507 374
f 79 314 587
f 606 305 511
f 587 212 585
f 314 212 587
f 420 539 416
f 585 212 305
f 546 503 241
f 371 547 502
f 190 416 539
f 510 138 601
f 47 138 510
f 510 103 394
f 151 582 256
f 582 151 572
f 151 230 572
f 569 593 165
f 374 569 521
f 128 352 506
f 315 592 547
f 14 521 569
f 579 352 581
f 498 315 118
f 600 271 376
f 600 561 271
f 587 540 79
f 517 491 502
f 371 502 491
f 241 571 546
f 371 315 547
f 503 516 420
f 593 572 230
f 79 540 507
f 560 351 506
f 128 506 351
f 582 538 481
f 498 4 605
f 103 599 499
f 48 601 138
f 139 609 48
f 609 139 539
f 190 539 139
f 571 241 425
f 283 580 56
f 283 561 580
f 283 271 561
f 230 165 593
f 420 132 503
f 585 305 606
f 388 570 10
f 562 572 593
f 597 502 547
f 504 516 503
f 561 602 554
f 590 498 605
f 503 546 504
f 598 609 539
f 609 545 601
f 589 579 542
f 577 542 581
f 560 506 591
f 243 263 86
f 536 575 511
f 461 226 357
f 278 487 176
f 197 141 426
f 73 41 307
f 270 465 148
f 575 149 606
f 31 346 148
f 318 274 213
f 458 104 410
f 588 587 585
f 269 214 318
f 15 338 96
f 394 366 324
f 393 415 60
f 68 255 11
f 289 108 206
f 207 220 269
f 259 226 43
f 107 131 301
f 16 119 332
f 243 268 167
f 213 281 421
f 453 345 129
f 27 359 334
f 522 112 482
f 41 319 207
f 540 587 578
f 334 359 106
f 55 445 92
f 69 429 459
f 480 441 194
f 480 194 336
f 480 336 566
f 275 197 460
f 486 395 168
f 232 293 284
f 275 460 171
f 55 469 445
f 453 435 345
f 468 81 393
f 295 323 360
f 396 160 205
f 178 380 111
f 264 290 450
f 381 449 162
f 452 50 405
f 109 145 58
f 355 91 247
f 129 345 87
f 444 30 215
f 455 20 226
f 178 130 225
f 26 475 328
f 400 475 26
f 252 422 135
f 134 355 485
f 277 507 540
f 537 569 507
f 569 537 593
f 562 375 572
f 497 538 582
f 538 497 523
f 523 605 584
f 392 547 592
f 553 499 599
f 560 536 511
f 548 509 571
f 517 502 552
f 277 540 578
f 576 602 600
f 600 602 561
f 554 580 561
f 548 580 604
f 601 518 510
f 589 506 579
f 579 581 542
f 562 593 537
f 590 592 498
f 606 511 575
f 570 499 553
f 609 598 545
f 509 544 571
f 544 504 546
f 598 539 516
f 581 570 577
f 588 578 587
f 500 606 149
f 590 605 523
f 548 604 509
f 497 582 375
f 523 584 538
f 597 547 392
f 599 510 518
f 560 591 536
f 537 507 277
f 598 516 563
f 392 592 590
f 577 570 553
f 504 563 516
f 517 552 576
f 502 597 552
f 506 589 591
f 546 571 544
f 601 545 518
f 500 585 606
f 582 572 375
f 576 600 517
f 554 604 580
f 588 585 500
f 553 599 518
f 462 219 446
f 117 121 188
f 446 143 181
f 462 174 219
f 442 89 177
f 163 26 35
f 163 177 89
f 360 431 83
f 294 436 439
f 474 326 33
f 136 326 456
# 609 vertices
# 0 texture params
# 0 normals
# 1214 facets

# 1 groups
