v 0.000000 0.020000 0.000000
v 0.000000 0.020000 0.010000
v 0.000000 0.030000 0.010000
v 0.000000 0.030000 0.000000
v 0.010000 0.020000 0.000000
v 0.010000 0.030000 0.000000
v 0.010000 0.030000 0.010000
v 0.010000 0.020000 0.010000
v 0.000000 0.020000 0.000000
v 0.010000 0.020000 0.000000
v 0.010000 0.020000 0.010000
v 0.000000 0.020000 0.010000
v 0.000000 0.020000 0.000000
v 0.000000 0.030000 0.000000
v 0.010000 0.030000 0.000000
v 0.010000 0.020000 0.000000
v 0.000000 0.020000 0.010000
v 0.000000 0.020000 0.020000
v 0.000000 0.030000 0.020000
v 0.000000 0.030000 0.010000
v 0.000000 0.020000 0.010000
v 0.010000 0.020000 0.010000
v 0.010000 0.020000 0.020000
v 0.000000 0.020000 0.020000
v 0.000000 0.020000 0.020000
v 0.000000 0.020000 0.030000
v 0.000000 0.030000 0.030000
v 0.000000 0.030000 0.020000
v 0.010000 0.020000 0.020000
v 0.010000 0.030000 0.020000
v 0.010000 0.030000 0.030000
v 0.010000 0.020000 0.030000
v 0.000000 0.020000 0.020000
v 0.010000 0.020000 0.020000
v 0.010000 0.020000 0.030000
v 0.000000 0.020000 0.030000
v 0.000000 0.020000 0.030000
v 0.010000 0.020000 0.030000
v 0.010000 0.030000 0.030000
v 0.000000 0.030000 0.030000
v 0.000000 0.030000 0.000000
v 0.000000 0.030000 0.010000
v 0.000000 0.040000 0.010000
v 0.000000 0.040000 0.000000
v 0.010000 0.030000 0.000000
v 0.010000 0.040000 0.000000
v 0.010000 0.040000 0.010000
v 0.010000 0.030000 0.010000
v 0.000000 0.030000 0.000000
v 0.000000 0.040000 0.000000
v 0.010000 0.040000 0.000000
v 0.010000 0.030000 0.000000
v 0.000000 0.030000 0.010000
v 0.000000 0.030000 0.020000
v 0.000000 0.040000 0.020000
v 0.000000 0.040000 0.010000
v 0.000000 0.030000 0.020000
v 0.000000 0.030000 0.030000
v 0.000000 0.040000 0.030000
v 0.000000 0.040000 0.020000
v 0.010000 0.030000 0.020000
v 0.010000 0.040000 0.020000
v 0.010000 0.040000 0.030000
v 0.010000 0.030000 0.030000
v 0.000000 0.030000 0.030000
v 0.010000 0.030000 0.030000
v 0.010000 0.040000 0.030000
v 0.000000 0.040000 0.030000
v 0.000000 0.040000 0.000000
v 0.000000 0.040000 0.010000
v 0.000000 0.050000 0.010000
v 0.000000 0.050000 0.000000
v 0.010000 0.040000 0.000000
v 0.010000 0.050000 0.000000
v 0.010000 0.050000 0.010000
v 0.010000 0.040000 0.010000
v 0.000000 0.040000 0.000000
v 0.000000 0.050000 0.000000
v 0.010000 0.050000 0.000000
v 0.010000 0.040000 0.000000
v 0.000000 0.040000 0.010000
v 0.000000 0.040000 0.020000
v 0.000000 0.050000 0.020000
v 0.000000 0.050000 0.010000
v 0.000000 0.040000 0.020000
v 0.000000 0.040000 0.030000
v 0.000000 0.050000 0.030000
v 0.000000 0.050000 0.020000
v 0.010000 0.040000 0.020000
v 0.010000 0.050000 0.020000
v 0.010000 0.050000 0.030000
v 0.010000 0.040000 0.030000
v 0.000000 0.040000 0.030000
v 0.010000 0.040000 0.030000
v 0.010000 0.050000 0.030000
v 0.000000 0.050000 0.030000
v 0.000000 0.050000 0.000000
v 0.000000 0.050000 0.010000
v 0.000000 0.060000 0.010000
v 0.000000 0.060000 0.000000
v 0.010000 0.050000 0.000000
v 0.010000 0.060000 0.000000
v 0.010000 0.060000 0.010000
v 0.010000 0.050000 0.010000
v 0.000000 0.060000 0.000000
v 0.000000 0.060000 0.010000
v 0.010000 0.060000 0.010000
v 0.010000 0.060000 0.000000
v 0.000000 0.050000 0.000000
v 0.000000 0.060000 0.000000
v 0.010000 0.060000 0.000000
v 0.010000 0.050000 0.000000
v 0.000000 0.050000 0.010000
v 0.000000 0.050000 0.020000
v 0.000000 0.060000 0.020000
v 0.000000 0.060000 0.010000
v 0.000000 0.060000 0.010000
v 0.000000 0.060000 0.020000
v 0.010000 0.060000 0.020000
v 0.010000 0.060000 0.010000
v 0.000000 0.050000 0.020000
v 0.000000 0.050000 0.030000
v 0.000000 0.060000 0.030000
v 0.000000 0.060000 0.020000
v 0.010000 0.050000 0.020000
v 0.010000 0.060000 0.020000
v 0.010000 0.060000 0.030000
v 0.010000 0.050000 0.030000
v 0.000000 0.060000 0.020000
v 0.000000 0.060000 0.030000
v 0.010000 0.060000 0.030000
v 0.010000 0.060000 0.020000
v 0.000000 0.050000 0.030000
v 0.010000 0.050000 0.030000
v 0.010000 0.060000 0.030000
v 0.000000 0.060000 0.030000
v 0.010000 0.020000 0.010000
v 0.020000 0.020000 0.010000
v 0.020000 0.020000 0.020000
v 0.010000 0.020000 0.020000
v 0.010000 0.020000 0.020000
v 0.020000 0.020000 0.020000
v 0.020000 0.030000 0.020000
v 0.010000 0.030000 0.020000
v 0.010000 0.020000 0.010000
v 0.010000 0.030000 0.010000
v 0.020000 0.030000 0.010000
v 0.020000 0.020000 0.010000
v 0.010000 0.030000 0.020000
v 0.020000 0.030000 0.020000
v 0.020000 0.040000 0.020000
v 0.010000 0.040000 0.020000
v 0.010000 0.030000 0.010000
v 0.010000 0.040000 0.010000
v 0.020000 0.040000 0.010000
v 0.020000 0.030000 0.010000
v 0.010000 0.040000 0.020000
v 0.020000 0.040000 0.020000
v 0.020000 0.050000 0.020000
v 0.010000 0.050000 0.020000
v 0.010000 0.040000 0.010000
v 0.010000 0.050000 0.010000
v 0.020000 0.050000 0.010000
v 0.020000 0.040000 0.010000
v 0.010000 0.060000 0.010000
v 0.010000 0.060000 0.020000
v 0.020000 0.060000 0.020000
v 0.020000 0.060000 0.010000
v 0.010000 0.050000 0.020000
v 0.020000 0.050000 0.020000
v 0.020000 0.060000 0.020000
v 0.010000 0.060000 0.020000
v 0.010000 0.050000 0.010000
v 0.010000 0.060000 0.010000
v 0.020000 0.060000 0.010000
v 0.020000 0.050000 0.010000
v 0.020000 0.020000 0.010000
v 0.030000 0.020000 0.010000
v 0.030000 0.020000 0.020000
v 0.020000 0.020000 0.020000
v 0.020000 0.020000 0.020000
v 0.030000 0.020000 0.020000
v 0.030000 0.030000 0.020000
v 0.020000 0.030000 0.020000
v 0.020000 0.020000 0.010000
v 0.020000 0.030000 0.010000
v 0.030000 0.030000 0.010000
v 0.030000 0.020000 0.010000
v 0.020000 0.030000 0.020000
v 0.030000 0.030000 0.020000
v 0.030000 0.040000 0.020000
v 0.020000 0.040000 0.020000
v 0.020000 0.030000 0.010000
v 0.020000 0.040000 0.010000
v 0.030000 0.040000 0.010000
v 0.030000 0.030000 0.010000
v 0.020000 0.040000 0.020000
v 0.030000 0.040000 0.020000
v 0.030000 0.050000 0.020000
v 0.020000 0.050000 0.020000
v 0.020000 0.040000 0.010000
v 0.020000 0.050000 0.010000
v 0.030000 0.050000 0.010000
v 0.030000 0.040000 0.010000
v 0.020000 0.060000 0.010000
v 0.020000 0.060000 0.020000
v 0.030000 0.060000 0.020000
v 0.030000 0.060000 0.010000
v 0.020000 0.050000 0.020000
v 0.030000 0.050000 0.020000
v 0.030000 0.060000 0.020000
v 0.020000 0.060000 0.020000
v 0.020000 0.050000 0.010000
v 0.020000 0.060000 0.010000
v 0.030000 0.060000 0.010000
v 0.030000 0.050000 0.010000
v 0.030000 0.020000 0.010000
v 0.040000 0.020000 0.010000
v 0.040000 0.020000 0.020000
v 0.030000 0.020000 0.020000
v 0.030000 0.020000 0.020000
v 0.040000 0.020000 0.020000
v 0.040000 0.030000 0.020000
v 0.030000 0.030000 0.020000
v 0.030000 0.020000 0.010000
v 0.030000 0.030000 0.010000
v 0.040000 0.030000 0.010000
v 0.040000 0.020000 0.010000
v 0.030000 0.030000 0.020000
v 0.040000 0.030000 0.020000
v 0.040000 0.040000 0.020000
v 0.030000 0.040000 0.020000
v 0.030000 0.030000 0.010000
v 0.030000 0.040000 0.010000
v 0.040000 0.040000 0.010000
v 0.040000 0.030000 0.010000
v 0.030000 0.040000 0.020000
v 0.040000 0.040000 0.020000
v 0.040000 0.050000 0.020000
v 0.030000 0.050000 0.020000
v 0.030000 0.040000 0.010000
v 0.030000 0.050000 0.010000
v 0.040000 0.050000 0.010000
v 0.040000 0.040000 0.010000
v 0.030000 0.060000 0.010000
v 0.030000 0.060000 0.020000
v 0.040000 0.060000 0.020000
v 0.040000 0.060000 0.010000
v 0.030000 0.050000 0.020000
v 0.040000 0.050000 0.020000
v 0.040000 0.060000 0.020000
v 0.030000 0.060000 0.020000
v 0.030000 0.050000 0.010000
v 0.030000 0.060000 0.010000
v 0.040000 0.060000 0.010000
v 0.040000 0.050000 0.010000
v 0.040000 0.020000 0.010000
v 0.050000 0.020000 0.010000
v 0.050000 0.020000 0.020000
v 0.040000 0.020000 0.020000
v 0.040000 0.020000 0.020000
v 0.050000 0.020000 0.020000
v 0.050000 0.030000 0.020000
v 0.040000 0.030000 0.020000
v 0.040000 0.020000 0.010000
v 0.040000 0.030000 0.010000
v 0.050000 0.030000 0.010000
v 0.050000 0.020000 0.010000
v 0.040000 0.030000 0.020000
v 0.050000 0.030000 0.020000
v 0.050000 0.040000 0.020000
v 0.040000 0.040000 0.020000
v 0.040000 0.030000 0.010000
v 0.040000 0.040000 0.010000
v 0.050000 0.040000 0.010000
v 0.050000 0.030000 0.010000
v 0.040000 0.040000 0.020000
v 0.050000 0.040000 0.020000
v 0.050000 0.050000 0.020000
v 0.040000 0.050000 0.020000
v 0.040000 0.040000 0.010000
v 0.040000 0.050000 0.010000
v 0.050000 0.050000 0.010000
v 0.050000 0.040000 0.010000
v 0.040000 0.060000 0.010000
v 0.040000 0.060000 0.020000
v 0.050000 0.060000 0.020000
v 0.050000 0.060000 0.010000
v 0.040000 0.050000 0.020000
v 0.050000 0.050000 0.020000
v 0.050000 0.060000 0.020000
v 0.040000 0.060000 0.020000
v 0.040000 0.050000 0.010000
v 0.040000 0.060000 0.010000
v 0.050000 0.060000 0.010000
v 0.050000 0.050000 0.010000
v 0.050000 0.020000 0.010000
v 0.060000 0.020000 0.010000
v 0.060000 0.020000 0.020000
v 0.050000 0.020000 0.020000
v 0.050000 0.020000 0.020000
v 0.060000 0.020000 0.020000
v 0.060000 0.030000 0.020000
v 0.050000 0.030000 0.020000
v 0.050000 0.020000 0.010000
v 0.050000 0.030000 0.010000
v 0.060000 0.030000 0.010000
v 0.060000 0.020000 0.010000
v 0.050000 0.030000 0.020000
v 0.060000 0.030000 0.020000
v 0.060000 0.040000 0.020000
v 0.050000 0.040000 0.020000
v 0.050000 0.030000 0.010000
v 0.050000 0.040000 0.010000
v 0.060000 0.040000 0.010000
v 0.060000 0.030000 0.010000
v 0.050000 0.040000 0.020000
v 0.060000 0.040000 0.020000
v 0.060000 0.050000 0.020000
v 0.050000 0.050000 0.020000
v 0.050000 0.040000 0.010000
v 0.050000 0.050000 0.010000
v 0.060000 0.050000 0.010000
v 0.060000 0.040000 0.010000
v 0.050000 0.060000 0.010000
v 0.050000 0.060000 0.020000
v 0.060000 0.060000 0.020000
v 0.060000 0.060000 0.010000
v 0.050000 0.050000 0.020000
v 0.060000 0.050000 0.020000
v 0.060000 0.060000 0.020000
v 0.050000 0.060000 0.020000
v 0.050000 0.050000 0.010000
v 0.050000 0.060000 0.010000
v 0.060000 0.060000 0.010000
v 0.060000 0.050000 0.010000
v 0.060000 0.020000 0.010000
v 0.070000 0.020000 0.010000
v 0.070000 0.020000 0.020000
v 0.060000 0.020000 0.020000
v 0.060000 0.020000 0.020000
v 0.070000 0.020000 0.020000
v 0.070000 0.030000 0.020000
v 0.060000 0.030000 0.020000
v 0.060000 0.020000 0.010000
v 0.060000 0.030000 0.010000
v 0.070000 0.030000 0.010000
v 0.070000 0.020000 0.010000
v 0.060000 0.030000 0.020000
v 0.070000 0.030000 0.020000
v 0.070000 0.040000 0.020000
v 0.060000 0.040000 0.020000
v 0.060000 0.030000 0.010000
v 0.060000 0.040000 0.010000
v 0.070000 0.040000 0.010000
v 0.070000 0.030000 0.010000
v 0.060000 0.040000 0.020000
v 0.070000 0.040000 0.020000
v 0.070000 0.050000 0.020000
v 0.060000 0.050000 0.020000
v 0.060000 0.040000 0.010000
v 0.060000 0.050000 0.010000
v 0.070000 0.050000 0.010000
v 0.070000 0.040000 0.010000
v 0.060000 0.060000 0.010000
v 0.060000 0.060000 0.020000
v 0.070000 0.060000 0.020000
v 0.070000 0.060000 0.010000
v 0.060000 0.050000 0.020000
v 0.070000 0.050000 0.020000
v 0.070000 0.060000 0.020000
v 0.060000 0.060000 0.020000
v 0.060000 0.050000 0.010000
v 0.060000 0.060000 0.010000
v 0.070000 0.060000 0.010000
v 0.070000 0.050000 0.010000
v 0.070000 0.010000 0.010000
v 0.070000 0.010000 0.020000
v 0.070000 0.020000 0.020000
v 0.070000 0.020000 0.010000
v 0.070000 0.010000 0.010000
v 0.080000 0.010000 0.010000
v 0.080000 0.010000 0.020000
v 0.070000 0.010000 0.020000
v 0.070000 0.010000 0.020000
v 0.080000 0.010000 0.020000
v 0.080000 0.020000 0.020000
v 0.070000 0.020000 0.020000
v 0.070000 0.010000 0.010000
v 0.070000 0.020000 0.010000
v 0.080000 0.020000 0.010000
v 0.080000 0.010000 0.010000
v 0.070000 0.020000 0.020000
v 0.080000 0.020000 0.020000
v 0.080000 0.030000 0.020000
v 0.070000 0.030000 0.020000
v 0.070000 0.020000 0.010000
v 0.070000 0.030000 0.010000
v 0.080000 0.030000 0.010000
v 0.080000 0.020000 0.010000
v 0.070000 0.030000 0.020000
v 0.080000 0.030000 0.020000
v 0.080000 0.040000 0.020000
v 0.070000 0.040000 0.020000
v 0.070000 0.030000 0.010000
v 0.070000 0.040000 0.010000
v 0.080000 0.040000 0.010000
v 0.080000 0.030000 0.010000
v 0.070000 0.040000 0.020000
v 0.080000 0.040000 0.020000
v 0.080000 0.050000 0.020000
v 0.070000 0.050000 0.020000
v 0.070000 0.040000 0.010000
v 0.070000 0.050000 0.010000
v 0.080000 0.050000 0.010000
v 0.080000 0.040000 0.010000
v 0.070000 0.050000 0.020000
v 0.080000 0.050000 0.020000
v 0.080000 0.060000 0.020000
v 0.070000 0.060000 0.020000
v 0.070000 0.050000 0.010000
v 0.070000 0.060000 0.010000
v 0.080000 0.060000 0.010000
v 0.080000 0.050000 0.010000
v 0.070000 0.060000 0.010000
v 0.070000 0.060000 0.020000
v 0.070000 0.070000 0.020000
v 0.070000 0.070000 0.010000
v 0.070000 0.070000 0.010000
v 0.070000 0.070000 0.020000
v 0.080000 0.070000 0.020000
v 0.080000 0.070000 0.010000
v 0.070000 0.060000 0.020000
v 0.080000 0.060000 0.020000
v 0.080000 0.070000 0.020000
v 0.070000 0.070000 0.020000
v 0.070000 0.060000 0.010000
v 0.070000 0.070000 0.010000
v 0.080000 0.070000 0.010000
v 0.080000 0.060000 0.010000
v 0.080000 0.010000 0.010000
v 0.090000 0.010000 0.010000
v 0.090000 0.010000 0.020000
v 0.080000 0.010000 0.020000
v 0.080000 0.010000 0.020000
v 0.090000 0.010000 0.020000
v 0.090000 0.020000 0.020000
v 0.080000 0.020000 0.020000
v 0.080000 0.010000 0.010000
v 0.080000 0.020000 0.010000
v 0.090000 0.020000 0.010000
v 0.090000 0.010000 0.010000
v 0.080000 0.020000 0.020000
v 0.090000 0.020000 0.020000
v 0.090000 0.030000 0.020000
v 0.080000 0.030000 0.020000
v 0.080000 0.020000 0.010000
v 0.080000 0.030000 0.010000
v 0.090000 0.030000 0.010000
v 0.090000 0.020000 0.010000
v 0.080000 0.030000 0.020000
v 0.090000 0.030000 0.020000
v 0.090000 0.040000 0.020000
v 0.080000 0.040000 0.020000
v 0.080000 0.030000 0.010000
v 0.080000 0.040000 0.010000
v 0.090000 0.040000 0.010000
v 0.090000 0.030000 0.010000
v 0.080000 0.040000 0.020000
v 0.090000 0.040000 0.020000
v 0.090000 0.050000 0.020000
v 0.080000 0.050000 0.020000
v 0.080000 0.040000 0.010000
v 0.080000 0.050000 0.010000
v 0.090000 0.050000 0.010000
v 0.090000 0.040000 0.010000
v 0.080000 0.050000 0.020000
v 0.090000 0.050000 0.020000
v 0.090000 0.060000 0.020000
v 0.080000 0.060000 0.020000
v 0.080000 0.050000 0.010000
v 0.080000 0.060000 0.010000
v 0.090000 0.060000 0.010000
v 0.090000 0.050000 0.010000
v 0.080000 0.070000 0.010000
v 0.080000 0.070000 0.020000
v 0.090000 0.070000 0.020000
v 0.090000 0.070000 0.010000
v 0.080000 0.060000 0.020000
v 0.090000 0.060000 0.020000
v 0.090000 0.070000 0.020000
v 0.080000 0.070000 0.020000
v 0.080000 0.060000 0.010000
v 0.080000 0.070000 0.010000
v 0.090000 0.070000 0.010000
v 0.090000 0.060000 0.010000
v 0.090000 0.000000 0.010000
v 0.090000 0.000000 0.020000
v 0.090000 0.010000 0.020000
v 0.090000 0.010000 0.010000
v 0.100000 0.000000 0.010000
v 0.100000 0.010000 0.010000
v 0.100000 0.010000 0.020000
v 0.100000 0.000000 0.020000
v 0.090000 0.000000 0.010000
v 0.100000 0.000000 0.010000
v 0.100000 0.000000 0.020000
v 0.090000 0.000000 0.020000
v 0.090000 0.000000 0.020000
v 0.100000 0.000000 0.020000
v 0.100000 0.010000 0.020000
v 0.090000 0.010000 0.020000
v 0.090000 0.000000 0.010000
v 0.090000 0.010000 0.010000
v 0.100000 0.010000 0.010000
v 0.100000 0.000000 0.010000
v 0.100000 0.010000 0.010000
v 0.100000 0.020000 0.010000
v 0.100000 0.020000 0.020000
v 0.100000 0.010000 0.020000
v 0.090000 0.010000 0.020000
v 0.100000 0.010000 0.020000
v 0.100000 0.020000 0.020000
v 0.090000 0.020000 0.020000
v 0.090000 0.010000 0.010000
v 0.090000 0.020000 0.010000
v 0.100000 0.020000 0.010000
v 0.100000 0.010000 0.010000
v 0.100000 0.020000 0.010000
v 0.100000 0.030000 0.010000
v 0.100000 0.030000 0.020000
v 0.100000 0.020000 0.020000
v 0.090000 0.020000 0.020000
v 0.100000 0.020000 0.020000
v 0.100000 0.030000 0.020000
v 0.090000 0.030000 0.020000
v 0.090000 0.020000 0.010000
v 0.090000 0.030000 0.010000
v 0.100000 0.030000 0.010000
v 0.100000 0.020000 0.010000
v 0.100000 0.030000 0.010000
v 0.100000 0.040000 0.010000
v 0.100000 0.040000 0.020000
v 0.100000 0.030000 0.020000
v 0.090000 0.030000 0.020000
v 0.100000 0.030000 0.020000
v 0.100000 0.040000 0.020000
v 0.090000 0.040000 0.020000
v 0.090000 0.030000 0.010000
v 0.090000 0.040000 0.010000
v 0.100000 0.040000 0.010000
v 0.100000 0.030000 0.010000
v 0.100000 0.040000 0.010000
v 0.100000 0.050000 0.010000
v 0.100000 0.050000 0.020000
v 0.100000 0.040000 0.020000
v 0.090000 0.040000 0.020000
v 0.100000 0.040000 0.020000
v 0.100000 0.050000 0.020000
v 0.090000 0.050000 0.020000
v 0.090000 0.040000 0.010000
v 0.090000 0.050000 0.010000
v 0.100000 0.050000 0.010000
v 0.100000 0.040000 0.010000
v 0.100000 0.050000 0.010000
v 0.100000 0.060000 0.010000
v 0.100000 0.060000 0.020000
v 0.100000 0.050000 0.020000
v 0.090000 0.050000 0.020000
v 0.100000 0.050000 0.020000
v 0.100000 0.060000 0.020000
v 0.090000 0.060000 0.020000
v 0.090000 0.050000 0.010000
v 0.090000 0.060000 0.010000
v 0.100000 0.060000 0.010000
v 0.100000 0.050000 0.010000
v 0.100000 0.060000 0.010000
v 0.100000 0.070000 0.010000
v 0.100000 0.070000 0.020000
v 0.100000 0.060000 0.020000
v 0.090000 0.060000 0.020000
v 0.100000 0.060000 0.020000
v 0.100000 0.070000 0.020000
v 0.090000 0.070000 0.020000
v 0.090000 0.060000 0.010000
v 0.090000 0.070000 0.010000
v 0.100000 0.070000 0.010000
v 0.100000 0.060000 0.010000
v 0.090000 0.070000 0.010000
v 0.090000 0.070000 0.020000
v 0.090000 0.080000 0.020000
v 0.090000 0.080000 0.010000
v 0.100000 0.070000 0.010000
v 0.100000 0.080000 0.010000
v 0.100000 0.080000 0.020000
v 0.100000 0.070000 0.020000
v 0.090000 0.080000 0.010000
v 0.090000 0.080000 0.020000
v 0.100000 0.080000 0.020000
v 0.100000 0.080000 0.010000
v 0.090000 0.070000 0.020000
v 0.100000 0.070000 0.020000
v 0.100000 0.080000 0.020000
v 0.090000 0.080000 0.020000
v 0.090000 0.070000 0.010000
v 0.090000 0.080000 0.010000
v 0.100000 0.080000 0.010000
v 0.100000 0.070000 0.010000
vt 0.000000 0.000000
vt 1.000000 0.000000
vt 1.000000 1.000000
vt 0.000000 1.000000
f 1/1 2/2 3/3
f 1/1 3/3 4/4
f 5/1 6/2 7/3
f 5/1 7/3 8/4
f 9/1 10/2 11/3
f 9/1 11/3 12/4
f 13/1 14/2 15/3
f 13/1 15/3 16/4
f 17/1 18/2 19/3
f 17/1 19/3 20/4
f 21/1 22/2 23/3
f 21/1 23/3 24/4
f 25/1 26/2 27/3
f 25/1 27/3 28/4
f 29/1 30/2 31/3
f 29/1 31/3 32/4
f 33/1 34/2 35/3
f 33/1 35/3 36/4
f 37/1 38/2 39/3
f 37/1 39/3 40/4
f 41/1 42/2 43/3
f 41/1 43/3 44/4
f 45/1 46/2 47/3
f 45/1 47/3 48/4
f 49/1 50/2 51/3
f 49/1 51/3 52/4
f 53/1 54/2 55/3
f 53/1 55/3 56/4
f 57/1 58/2 59/3
f 57/1 59/3 60/4
f 61/1 62/2 63/3
f 61/1 63/3 64/4
f 65/1 66/2 67/3
f 65/1 67/3 68/4
f 69/1 70/2 71/3
f 69/1 71/3 72/4
f 73/1 74/2 75/3
f 73/1 75/3 76/4
f 77/1 78/2 79/3
f 77/1 79/3 80/4
f 81/1 82/2 83/3
f 81/1 83/3 84/4
f 85/1 86/2 87/3
f 85/1 87/3 88/4
f 89/1 90/2 91/3
f 89/1 91/3 92/4
f 93/1 94/2 95/3
f 93/1 95/3 96/4
f 97/1 98/2 99/3
f 97/1 99/3 100/4
f 101/1 102/2 103/3
f 101/1 103/3 104/4
f 105/1 106/2 107/3
f 105/1 107/3 108/4
f 109/1 110/2 111/3
f 109/1 111/3 112/4
f 113/1 114/2 115/3
f 113/1 115/3 116/4
f 117/1 118/2 119/3
f 117/1 119/3 120/4
f 121/1 122/2 123/3
f 121/1 123/3 124/4
f 125/1 126/2 127/3
f 125/1 127/3 128/4
f 129/1 130/2 131/3
f 129/1 131/3 132/4
f 133/1 134/2 135/3
f 133/1 135/3 136/4
f 137/1 138/2 139/3
f 137/1 139/3 140/4
f 141/1 142/2 143/3
f 141/1 143/3 144/4
f 145/1 146/2 147/3
f 145/1 147/3 148/4
f 149/1 150/2 151/3
f 149/1 151/3 152/4
f 153/1 154/2 155/3
f 153/1 155/3 156/4
f 157/1 158/2 159/3
f 157/1 159/3 160/4
f 161/1 162/2 163/3
f 161/1 163/3 164/4
f 165/1 166/2 167/3
f 165/1 167/3 168/4
f 169/1 170/2 171/3
f 169/1 171/3 172/4
f 173/1 174/2 175/3
f 173/1 175/3 176/4
f 177/1 178/2 179/3
f 177/1 179/3 180/4
f 181/1 182/2 183/3
f 181/1 183/3 184/4
f 185/1 186/2 187/3
f 185/1 187/3 188/4
f 189/1 190/2 191/3
f 189/1 191/3 192/4
f 193/1 194/2 195/3
f 193/1 195/3 196/4
f 197/1 198/2 199/3
f 197/1 199/3 200/4
f 201/1 202/2 203/3
f 201/1 203/3 204/4
f 205/1 206/2 207/3
f 205/1 207/3 208/4
f 209/1 210/2 211/3
f 209/1 211/3 212/4
f 213/1 214/2 215/3
f 213/1 215/3 216/4
f 217/1 218/2 219/3
f 217/1 219/3 220/4
f 221/1 222/2 223/3
f 221/1 223/3 224/4
f 225/1 226/2 227/3
f 225/1 227/3 228/4
f 229/1 230/2 231/3
f 229/1 231/3 232/4
f 233/1 234/2 235/3
f 233/1 235/3 236/4
f 237/1 238/2 239/3
f 237/1 239/3 240/4
f 241/1 242/2 243/3
f 241/1 243/3 244/4
f 245/1 246/2 247/3
f 245/1 247/3 248/4
f 249/1 250/2 251/3
f 249/1 251/3 252/4
f 253/1 254/2 255/3
f 253/1 255/3 256/4
f 257/1 258/2 259/3
f 257/1 259/3 260/4
f 261/1 262/2 263/3
f 261/1 263/3 264/4
f 265/1 266/2 267/3
f 265/1 267/3 268/4
f 269/1 270/2 271/3
f 269/1 271/3 272/4
f 273/1 274/2 275/3
f 273/1 275/3 276/4
f 277/1 278/2 279/3
f 277/1 279/3 280/4
f 281/1 282/2 283/3
f 281/1 283/3 284/4
f 285/1 286/2 287/3
f 285/1 287/3 288/4
f 289/1 290/2 291/3
f 289/1 291/3 292/4
f 293/1 294/2 295/3
f 293/1 295/3 296/4
f 297/1 298/2 299/3
f 297/1 299/3 300/4
f 301/1 302/2 303/3
f 301/1 303/3 304/4
f 305/1 306/2 307/3
f 305/1 307/3 308/4
f 309/1 310/2 311/3
f 309/1 311/3 312/4
f 313/1 314/2 315/3
f 313/1 315/3 316/4
f 317/1 318/2 319/3
f 317/1 319/3 320/4
f 321/1 322/2 323/3
f 321/1 323/3 324/4
f 325/1 326/2 327/3
f 325/1 327/3 328/4
f 329/1 330/2 331/3
f 329/1 331/3 332/4
f 333/1 334/2 335/3
f 333/1 335/3 336/4
f 337/1 338/2 339/3
f 337/1 339/3 340/4
f 341/1 342/2 343/3
f 341/1 343/3 344/4
f 345/1 346/2 347/3
f 345/1 347/3 348/4
f 349/1 350/2 351/3
f 349/1 351/3 352/4
f 353/1 354/2 355/3
f 353/1 355/3 356/4
f 357/1 358/2 359/3
f 357/1 359/3 360/4
f 361/1 362/2 363/3
f 361/1 363/3 364/4
f 365/1 366/2 367/3
f 365/1 367/3 368/4
f 369/1 370/2 371/3
f 369/1 371/3 372/4
f 373/1 374/2 375/3
f 373/1 375/3 376/4
f 377/1 378/2 379/3
f 377/1 379/3 380/4
f 381/1 382/2 383/3
f 381/1 383/3 384/4
f 385/1 386/2 387/3
f 385/1 387/3 388/4
f 389/1 390/2 391/3
f 389/1 391/3 392/4
f 393/1 394/2 395/3
f 393/1 395/3 396/4
f 397/1 398/2 399/3
f 397/1 399/3 400/4
f 401/1 402/2 403/3
f 401/1 403/3 404/4
f 405/1 406/2 407/3
f 405/1 407/3 408/4
f 409/1 410/2 411/3
f 409/1 411/3 412/4
f 413/1 414/2 415/3
f 413/1 415/3 416/4
f 417/1 418/2 419/3
f 417/1 419/3 420/4
f 421/1 422/2 423/3
f 421/1 423/3 424/4
f 425/1 426/2 427/3
f 425/1 427/3 428/4
f 429/1 430/2 431/3
f 429/1 431/3 432/4
f 433/1 434/2 435/3
f 433/1 435/3 436/4
f 437/1 438/2 439/3
f 437/1 439/3 440/4
f 441/1 442/2 443/3
f 441/1 443/3 444/4
f 445/1 446/2 447/3
f 445/1 447/3 448/4
f 449/1 450/2 451/3
f 449/1 451/3 452/4
f 453/1 454/2 455/3
f 453/1 455/3 456/4
f 457/1 458/2 459/3
f 457/1 459/3 460/4
f 461/1 462/2 463/3
f 461/1 463/3 464/4
f 465/1 466/2 467/3
f 465/1 467/3 468/4
f 469/1 470/2 471/3
f 469/1 471/3 472/4
f 473/1 474/2 475/3
f 473/1 475/3 476/4
f 477/1 478/2 479/3
f 477/1 479/3 480/4
f 481/1 482/2 483/3
f 481/1 483/3 484/4
f 485/1 486/2 487/3
f 485/1 487/3 488/4
f 489/1 490/2 491/3
f 489/1 491/3 492/4
f 493/1 494/2 495/3
f 493/1 495/3 496/4
f 497/1 498/2 499/3
f 497/1 499/3 500/4
f 501/1 502/2 503/3
f 501/1 503/3 504/4
f 505/1 506/2 507/3
f 505/1 507/3 508/4
f 509/1 510/2 511/3
f 509/1 511/3 512/4
f 513/1 514/2 515/3
f 513/1 515/3 516/4
f 517/1 518/2 519/3
f 517/1 519/3 520/4
f 521/1 522/2 523/3
f 521/1 523/3 524/4
f 525/1 526/2 527/3
f 525/1 527/3 528/4
f 529/1 530/2 531/3
f 529/1 531/3 532/4
f 533/1 534/2 535/3
f 533/1 535/3 536/4
f 537/1 538/2 539/3
f 537/1 539/3 540/4
f 541/1 542/2 543/3
f 541/1 543/3 544/4
f 545/1 546/2 547/3
f 545/1 547/3 548/4
f 549/1 550/2 551/3
f 549/1 551/3 552/4
f 553/1 554/2 555/3
f 553/1 555/3 556/4
f 557/1 558/2 559/3
f 557/1 559/3 560/4
f 561/1 562/2 563/3
f 561/1 563/3 564/4
f 565/1 566/2 567/3
f 565/1 567/3 568/4
f 569/1 570/2 571/3
f 569/1 571/3 572/4
f 573/1 574/2 575/3
f 573/1 575/3 576/4
f 577/1 578/2 579/3
f 577/1 579/3 580/4
f 581/1 582/2 583/3
f 581/1 583/3 584/4
f 585/1 586/2 587/3
f 585/1 587/3 588/4
f 589/1 590/2 591/3
f 589/1 591/3 592/4
f 593/1 594/2 595/3
f 593/1 595/3 596/4
f 597/1 598/2 599/3
f 597/1 599/3 600/4
f 601/1 602/2 603/3
f 601/1 603/3 604/4
f 605/1 606/2 607/3
f 605/1 607/3 608/4
